{
   "accessors" : [
      {
         "bufferView" : 0,
         "componentType" : 5123,
         "count" : 432,
         "max" : [ 431 ],
         "min" : [ 0 ],
         "name" : "buffer-0-accessor-indices-buffer-0-mesh-0",
         "type" : "SCALAR"
      },
      {
         "bufferView" : 2,
         "componentType" : 5126,
         "count" : 432,
         "max" : [ 12.75303268432617, 164.8477325439453, 7.806466102600098 ],
         "min" : [ -14.10064792633057, 0, -16.91409683227539 ],
         "name" : "buffer-0-accessor-position-buffer-0-mesh-0",
         "type" : "VEC3"
      },
      {
         "bufferView" : 2,
         "byteOffset" : 5184,
         "componentType" : 5126,
         "count" : 432,
         "max" : [ 0.9606000185012817, 0.9165999889373779, 0.9632999897003174 ],
         "min" : [ -0.9606000185012817, -0.9165999889373779, -0.9632999897003174 ],
         "name" : "buffer-0-accessor-normal-buffer-0-mesh-0",
         "type" : "VEC3"
      },
      {
         "bufferView" : 1,
         "componentType" : 5126,
         "count" : 432,
         "max" : [ 0.4614999890327454, 0 ],
         "min" : [ 0, -0.1562999933958054 ],
         "name" : "buffer-0-accessor-texcoord-buffer-0-mesh-0",
         "type" : "VEC2"
      },
      {
         "bufferView" : 3,
         "componentType" : 5126,
         "count" : 0,
         "max" : [ 0, 0, 0, 0 ],
         "min" : [ 0, 0, 0, 0 ],
         "name" : "buffer-0-accessor-color-buffer-0-mesh-0",
         "type" : "VEC4"
      },
      {
         "bufferView" : 0,
         "byteOffset" : 864,
         "componentType" : 5123,
         "count" : 2064,
         "max" : [ 2063 ],
         "min" : [ 0 ],
         "name" : "buffer-0-accessor-indices-buffer-0-mesh-0",
         "type" : "SCALAR"
      },
      {
         "bufferView" : 2,
         "byteOffset" : 10368,
         "componentType" : 5126,
         "count" : 2064,
         "max" : [ 83.22044372558594, 199.7203979492188, 64.56024169921875 ],
         "min" : [ -76.61887359619141, 0, -84.44209289550781 ],
         "name" : "buffer-0-accessor-position-buffer-0-mesh-0",
         "type" : "VEC3"
      },
      {
         "bufferView" : 2,
         "byteOffset" : 35136,
         "componentType" : 5126,
         "count" : 2064,
         "max" : [ 0.9997000098228455, 0.9997000098228455, 0.9998000264167786 ],
         "min" : [ -0.9998000264167786, -0.9994000196456909, -0.9972000122070312 ],
         "name" : "buffer-0-accessor-normal-buffer-0-mesh-0",
         "type" : "VEC3"
      },
      {
         "bufferView" : 1,
         "byteOffset" : 3456,
         "componentType" : 5126,
         "count" : 2064,
         "max" : [ 0.6442000269889832, 0 ],
         "min" : [ 0, -0.7010999917984009 ],
         "name" : "buffer-0-accessor-texcoord-buffer-0-mesh-0",
         "type" : "VEC2"
      },
      {
         "bufferView" : 3,
         "componentType" : 5126,
         "count" : 0,
         "max" : [ 0, 0, 0, 0 ],
         "min" : [ 0, 0, 0, 0 ],
         "name" : "buffer-0-accessor-color-buffer-0-mesh-0",
         "type" : "VEC4"
      },
      {
         "bufferView" : 0,
         "byteOffset" : 4992,
         "componentType" : 5123,
         "count" : 504,
         "max" : [ 503 ],
         "min" : [ 0 ],
         "name" : "buffer-0-accessor-indices-buffer-0-mesh-0",
         "type" : "SCALAR"
      },
      {
         "bufferView" : 2,
         "byteOffset" : 59904,
         "componentType" : 5126,
         "count" : 504,
         "max" : [ 8.215724945068359, 159.3425598144531, 20.76642799377441 ],
         "min" : [ -8.215724945068359, 0, -10.31781387329102 ],
         "name" : "buffer-0-accessor-position-buffer-0-mesh-0",
         "type" : "VEC3"
      },
      {
         "bufferView" : 2,
         "byteOffset" : 65952,
         "componentType" : 5126,
         "count" : 504,
         "max" : [ 0.9243000149726868, 0.3445000052452087, 0.9247999787330627 ],
         "min" : [ -0.9243000149726868, -1, -0.9248999953269958 ],
         "name" : "buffer-0-accessor-normal-buffer-0-mesh-0",
         "type" : "VEC3"
      },
      {
         "bufferView" : 1,
         "byteOffset" : 19968,
         "componentType" : 5126,
         "count" : 504,
         "max" : [ 0.2558000087738037, 0 ],
         "min" : [ 0, -0.1526000052690506 ],
         "name" : "buffer-0-accessor-texcoord-buffer-0-mesh-0",
         "type" : "VEC2"
      },
      {
         "bufferView" : 3,
         "componentType" : 5126,
         "count" : 0,
         "max" : [ 0, 0, 0, 0 ],
         "min" : [ 0, 0, 0, 0 ],
         "name" : "buffer-0-accessor-color-buffer-0-mesh-0",
         "type" : "VEC4"
      }
   ],
   "asset" : {
      "extras" : {
         "GOOGLE_processor_version" : 294144208
      },
      "generator" : "Obj2GltfConverter",
      "version" : "2.0"
   },
   "bufferViews" : [
      {
         "buffer" : 0,
         "byteLength" : 6000,
         "byteStride" : 0,
         "name" : "buffer-0-bufferview-ushort",
         "target" : 34963
      },
      {
         "buffer" : 0,
         "byteLength" : 24000,
         "byteOffset" : 6000,
         "byteStride" : 8,
         "name" : "buffer-0-bufferview-vec2",
         "target" : 34962
      },
      {
         "buffer" : 0,
         "byteLength" : 72000,
         "byteOffset" : 30000,
         "byteStride" : 12,
         "name" : "buffer-0-bufferview-vec3",
         "target" : 34962
      },
      {
         "buffer" : 0,
         "byteLength" : 1,
         "name" : "buffer-0-bufferview-vec4"
      }
   ],
   "buffers" : [
      {
         "byteLength" : 102000,
         "name" : "buffer-0",
         "uri" : "palm_tree_02.bin"
      }
   ],
   "cameras" : [
      {
         "perspective" : {
            "yfov" : 0.7853981633974483,
            "znear" : 0.1000000014901161
         },
         "type" : "perspective"
      }
   ],
   "extensions" : {
      "KHR_lights_punctual" : {
         "lights" : [
            {
               "color" : [ 1, 0.9333333333333333, 0.8666666666666667 ],
               "intensity" : 0.25,
               "name" : "headLight",
               "type" : "directional"
            },
            {
               "color" : [ 1, 0.9333333333333333, 0.8666666666666667 ],
               "intensity" : 0.324999988079071,
               "name" : "keyLight",
               "type" : "directional"
            }
         ]
      }
   },
   "extensionsUsed" : [ "GOOGLE_backgrounds", "GOOGLE_camera_settings", "KHR_lights_punctual" ],
   "extras" : {
      "GOOGLE_initial_camera_motion" : {
         "motionPath" : "FULL_ROTATION"
      },
      "GOOGLE_lighting_rig" : {
         "disableShadows" : false
      }
   },
   "materials" : [
      {
         "doubleSided" : true,
         "extras" : {
            "__iag_" : true
         },
         "name" : "795548",
         "pbrMetallicRoughness" : {
            "baseColorFactor" : [ 0.2251597401, 0.111110888889, 0.07972321660900002, 1 ],
            "metallicFactor" : 0,
            "roughnessFactor" : 0.7448017359246658
         }
      },
      {
         "doubleSided" : true,
         "extras" : {
            "__iag_" : true
         },
         "name" : "8BC34A",
         "pbrMetallicRoughness" : {
            "baseColorFactor" : [ 0.297131829604, 0.584775266436, 0.08421371841600001, 1 ],
            "metallicFactor" : 0,
            "roughnessFactor" : 0.7448017359246658
         }
      },
      {
         "doubleSided" : true,
         "extras" : {
            "__iag_" : true
         },
         "name" : "DD9944",
         "pbrMetallicRoughness" : {
            "baseColorFactor" : [ 0.7511116888889999, 0.36, 0.07111128888899999, 1 ],
            "metallicFactor" : 0,
            "roughnessFactor" : 0.7448017359246658
         }
      }
   ],
   "meshes" : [
      {
         "name" : "buffer-0-mesh-0",
         "primitives" : [
            {
               "attributes" : {
                  "NORMAL" : 2,
                  "POSITION" : 1,
                  "TEXCOORD_0" : 3
               },
               "indices" : 0,
               "material" : 0
            },
            {
               "attributes" : {
                  "NORMAL" : 7,
                  "POSITION" : 6,
                  "TEXCOORD_0" : 8
               },
               "indices" : 5,
               "material" : 1
            },
            {
               "attributes" : {
                  "NORMAL" : 12,
                  "POSITION" : 11,
                  "TEXCOORD_0" : 13
               },
               "indices" : 10,
               "material" : 2
            }
         ]
      }
   ],
   "nodes" : [
      {
         "mesh" : 0,
         "name" : "node-0"
      },
      {
         "children" : [ 2 ]
      },
      {
         "children" : [ 3 ],
         "extras" : {
            "isTransformNode" : 1
         },
         "translation" : [ -1.524849108820687, 132.5470738500197, -12.0730244704175 ]
      },
      {
         "children" : [ 0 ],
         "translation" : [ 1.524849108820687, -132.5470738500197, 12.0730244704175 ]
      },
      {
         "camera" : 0,
         "children" : [ 5 ],
         "rotation" : [
            -0.2219240542792731,
            -0.2518950318538081,
            -0.05946428056213158,
            0.9400864887853922
         ],
         "translation" : [ -132.5242966780186, 241.6258926531902, 216.186512118811 ]
      },
      {
         "extensions" : {
            "KHR_lights_punctual" : {
               "light" : 0
            }
         },
         "extras" : {
            "isHeadLight" : 1
         },
         "name" : "headLightNode",
         "translation" : [ -171.0356902670086, 85.5178451335043, 85.5178451335043 ]
      },
      {
         "extensions" : {
            "KHR_lights_punctual" : {
               "light" : 1
            }
         },
         "extras" : {
            "isKeyLight" : 1
         },
         "name" : "keyLightNode",
         "rotation" : [ -0.7505326882858236, -0.3752663441429118, 0, 0.5439447166468927 ],
         "scale" : [ 0, 0, 172.7460471696787 ],
         "translation" : [ -171.5890681344247, 499.572080142453, -179.9640716704808 ]
      }
   ],
   "scene" : 0,
   "scenes" : [
      {
         "extensions" : {
            "GOOGLE_backgrounds" : {
               "color" : [ 0.1568627450980392, 0.207843137254902, 0.5764705882352941 ]
            },
            "GOOGLE_camera_settings" : {}
         },
         "extras" : {
            "GOOGLE_camera_index" : {
               "cameraIndex" : 0,
               "nodeIndex" : 4
            },
            "GOOGLE_geometry_data" : {
               "stats" : {
                  "centroid" : [ 1.156979035253947, 154.0799858030956, -7.218024500802159 ],
                  "radius" : 171.0356902670086,
                  "stdev" : 55.05061548048896
               },
               "visualCenterPoint" : [ -1.524849108820687, 132.5470738500197, -12.0730244704175 ]
            },
            "GOOGLE_hemi_light" : {
               "groundColor" : [ 0.1568627450980392, 0.207843137254902, 0.5764705882352941 ]
            }
         },
         "name" : "scene-0",
         "nodes" : [ 1, 4, 6 ]
      }
   ]
}
